<svg width="512" height="512" viewBox="0 0 512 512" fill="none" xmlns="http://www.w3.org/2000/svg">
<rect width="512" height="512" rx="60" fill="url(#paint0_linear_9_1294)"/>
<circle opacity="0.35" cx="256" cy="256" r="210" fill="url(#paint1_radial_9_1294)"/>
<path fill-rule="evenodd" clip-rule="evenodd" d="M181.844 170.25C165.776 170.25 152.75 183.276 152.75 199.344V337.156C152.75 353.224 165.776 366.25 181.844 366.25H319.656C335.724 366.25 348.75 353.224 348.75 337.156V264.829C348.75 258.063 354.235 252.579 361 252.579C367.766 252.579 373.25 258.063 373.25 264.829V337.156C373.25 366.755 349.255 390.75 319.656 390.75H181.844C152.245 390.75 128.25 366.755 128.25 337.156V199.344C128.25 169.745 152.245 145.75 181.844 145.75H231.596C238.362 145.75 243.846 151.235 243.846 158C243.846 164.765 238.362 170.25 231.596 170.25H181.844Z" fill="white"/>
<path fill-rule="evenodd" clip-rule="evenodd" d="M203.864 284.39L149.121 338.622C144.315 343.383 136.559 343.347 131.797 338.541C127.036 333.735 127.072 325.978 131.879 321.217L186.712 266.895C186.768 266.839 186.824 266.785 186.881 266.731C194.935 259.053 204.928 254.25 215.896 254.25C226.864 254.25 236.857 259.053 244.911 266.731C244.968 266.785 245.024 266.839 245.08 266.895L313.621 334.797C318.428 339.559 318.464 347.315 313.703 352.121C308.941 356.928 301.185 356.964 296.379 352.203L227.927 284.389C223.507 280.205 219.346 278.75 215.896 278.75C212.446 278.75 208.285 280.205 203.864 284.39Z" fill="white"/>
<path fill-rule="evenodd" clip-rule="evenodd" d="M299.28 312.31L285.373 325.333C280.434 329.957 272.682 329.702 268.058 324.764C263.434 319.825 263.689 312.073 268.627 307.449L282.627 294.34C282.684 294.286 282.742 294.233 282.8 294.181C291.038 286.758 301.104 282.25 312 282.25C322.895 282.25 332.962 286.758 341.2 294.181C341.258 294.233 341.316 294.286 341.373 294.34L369.373 320.558C374.311 325.182 374.566 332.934 369.942 337.873C365.318 342.811 357.565 343.066 352.627 338.442L324.72 312.31C320.217 308.281 315.827 306.75 312 306.75C308.173 306.75 303.783 308.281 299.28 312.31Z" fill="white"/>
<path fill-rule="evenodd" clip-rule="evenodd" d="M280.849 178.922L322.922 220.995L364.995 178.922L322.922 136.849L280.849 178.922ZM256.101 169.023C250.633 174.49 250.633 183.354 256.101 188.822L313.023 245.744C318.49 251.211 327.354 251.211 332.822 245.744L389.744 188.822C395.211 183.354 395.211 174.49 389.744 169.023L332.822 112.101C327.354 106.633 318.49 106.633 313.023 112.101L256.101 169.023Z" fill="white"/>
<defs>
<linearGradient id="paint0_linear_9_1294" x1="0" y1="0" x2="512" y2="512" gradientUnits="userSpaceOnUse">
<stop stop-color="#9C4DF9"/>
<stop offset="1" stop-color="#00B3F9"/>
</linearGradient>
<radialGradient id="paint1_radial_9_1294" cx="0" cy="0" r="1" gradientUnits="userSpaceOnUse" gradientTransform="translate(256 256) rotate(90) scale(210)">
<stop stop-color="white"/>
<stop offset="1" stop-color="white" stop-opacity="0"/>
</radialGradient>
</defs>
</svg>
